HIERARCHY
ROOT hip
{
	OFFSET 0.000000 0.000000 0.000000
	CHANNELS 6 Xposition Yposition Zposition Zrotation Yrotation Xrotation 
	JOINT lhipjoint
	{
		OFFSET 0.000000 0.000000 0.000000
		CHANNELS 3 Zrotation Yrotation Xrotation
		JOINT lfemur
		{
			OFFSET 1.363060 -1.794630 0.839290
			CHANNELS 3 Zrotation Yrotation Xrotation
			JOINT ltibia
			{
				OFFSET 2.448110 -6.726130 0.000000
				CHANNELS 3 Zrotation Yrotation Xrotation
				JOINT lfoot
				{
					OFFSET 2.562200 -7.039590 0.000000
					CHANNELS 3 Zrotation Yrotation Xrotation
					JOINT ltoes
					{
						OFFSET 0.157640 -0.433110 2.322550
						CHANNELS 3 Zrotation Yrotation Xrotation
						End Site
						{
							OFFSET 0.000000 0.000000 0.000000
						}
					}
				}
			}
		}
	}
	JOINT rhipjoint
	{
		OFFSET 0.000000 0.000000 0.000000
		CHANNELS 3 Zrotation Yrotation Xrotation
		JOINT rfemur
		{
			OFFSET -1.305520 -1.794630 0.839290
			CHANNELS 3 Zrotation Yrotation Xrotation
			JOINT rtibia
			{
				OFFSET -2.542530 -6.985550 0.000000
				CHANNELS 3 Zrotation Yrotation Xrotation
				JOINT rfoot
				{
					OFFSET -2.568260 -7.056230 0.000000
					CHANNELS 3 Zrotation Yrotation Xrotation
					JOINT rtoes
					{
						OFFSET -0.164730 -0.452590 2.363150
						CHANNELS 3 Zrotation Yrotation Xrotation
						End Site
						{
							OFFSET 0.000000 0.000000 0.000000
						}
					}
				}
			}
		}
	}
	JOINT lowerback
	{
		OFFSET 0.000000 0.000000 0.000000
		CHANNELS 3 Zrotation Yrotation Xrotation
		JOINT upperback
		{
			OFFSET 0.028270 2.035590 -0.193380
			CHANNELS 3 Zrotation Yrotation Xrotation
			JOINT thorax
			{
				OFFSET 0.056720 2.048850 -0.042750
				CHANNELS 3 Zrotation Yrotation Xrotation
				JOINT lowerneck
				{
					OFFSET 0.000000 0.000000 0.000000
					CHANNELS 3 Zrotation Yrotation Xrotation
					JOINT upperneck
					{
						OFFSET -0.054170 1.746240 0.172020
						CHANNELS 3 Zrotation Yrotation Xrotation
						JOINT head
						{
							OFFSET 0.104070 1.761360 -0.123970
							CHANNELS 3 Zrotation Yrotation Xrotation
							End Site
							{
								OFFSET 0.000000 0.000000 0.000000
							}
						}
					}
				}
				JOINT lclavicle
				{
					OFFSET 0.000000 0.000000 0.000000
					CHANNELS 3 Zrotation Yrotation Xrotation
					JOINT lhumerus
					{
						OFFSET 3.362410 1.200890 -0.311210
						CHANNELS 3 Zrotation Yrotation Xrotation
						JOINT lradius
						{
							OFFSET 4.983000 -0.000000 -0.000000
							CHANNELS 3 Zrotation Yrotation Xrotation
							JOINT lwrist
							{
								OFFSET 3.483560 -0.000000 -0.000000
								CHANNELS 3 Zrotation Yrotation Xrotation
								JOINT lhand
								{
									OFFSET 0.000000 0.000000 0.000000
									CHANNELS 3 Zrotation Yrotation Xrotation
									JOINT lfingers
									{
										OFFSET 0.715260 -0.000000 -0.000000
										CHANNELS 3 Zrotation Yrotation Xrotation
										End Site
										{
											OFFSET 0.000000 0.000000 0.000000
										}
									}
								}
								JOINT lthumb
								{
									OFFSET 0.000000 0.000000 0.000000
									CHANNELS 3 Zrotation Yrotation Xrotation
									End Site
									{
										OFFSET 0.000000 0.000000 0.000000
									}
								}
							}
						}
					}
				}
				JOINT rclavicle
				{
					OFFSET 0.000000 0.000000 0.000000
					CHANNELS 3 Zrotation Yrotation Xrotation
					JOINT rhumerus
					{
						OFFSET -3.136600 1.374050 -0.404650
						CHANNELS 3 Zrotation Yrotation Xrotation
						JOINT rradius
						{
							OFFSET -5.241900 -0.000000 -0.000000
							CHANNELS 3 Zrotation Yrotation Xrotation
							JOINT rwrist
							{
								OFFSET -3.444170 -0.000000 -0.000000
								CHANNELS 3 Zrotation Yrotation Xrotation
								JOINT rhand
								{
									OFFSET 0.000000 0.000000 0.000000
									CHANNELS 3 Zrotation Yrotation Xrotation
									JOINT rfingers
									{
										OFFSET -0.622530 -0.000000 -0.000000
										CHANNELS 3 Zrotation Yrotation Xrotation
										End Site
										{
											OFFSET 0.000000 0.000000 0.000000
										}
									}
								}
								JOINT rthumb
								{
									OFFSET 0.000000 0.000000 0.000000
									CHANNELS 3 Zrotation Yrotation Xrotation
									End Site
									{
										OFFSET 0.000000 0.000000 0.000000
									}
								}
							}
						}
					}
				}
			}
		}
	}
}
MOTION
Frames: 8
Frame Time: 0.008333
6.790524 16.995528 1.131224 -176.643301 23.418384 -174.373616 -1.292713 2.619030 2.763075 4.838570 6.300758 -9.702729 5.295934 13.595599 42.677159 2.122269 -25.104127 2.918160 1.318700 -7.273300 -20.527600 -0.751457 -3.031674 1.326345 2.694833 7.531276 -39.511106 -5.387111 -13.958875 42.292572 2.461895 -12.883343 -0.741653 -2.901400 10.533700 -30.722800 -0.660845 -0.051156 4.183423 0.198803 -0.363263 -4.860723 1.313252 0.385420 -5.892096 -3.607340 -15.860933 17.332433 -3.153116 -18.626812 2.964531 4.180300 -8.656900 -3.390100 -0.803278 3.353345 0.799374 -81.021530 -45.246474 91.018435 117.709886 -54.941781 -73.889025 0.745465 2.394916 -14.798173 25.909151 -15.286402 -8.012400 -7.125000 0.000000 0.000000 -2.228600 10.442600 1.789200 3.329394 0.678068 -1.233659 -18.245494 24.571458 50.103566 -19.706935 33.812010 -4.088791 -0.257200 -2.156408 -54.947442 -27.035470 -10.972384 4.648000 7.125000 0.000000 0.000000 1.666800 -40.975000 0.165500 
6.865857 16.924910 1.167712 -176.387015 22.826093 -174.459862 -1.199106 2.578527 2.740779 6.049617 5.651421 -10.075035 5.642386 14.001646 43.976318 2.305265 -24.262825 1.280209 1.786900 -8.407400 -23.958500 -0.776962 -3.052066 1.348294 2.315408 7.364343 -39.205952 -5.397202 -14.006189 42.414773 2.233639 -11.972017 -0.102766 -3.100500 10.855900 -31.795600 0.044185 0.421938 4.739081 0.146355 0.269467 -4.825845 0.949146 0.723530 -6.293525 -3.831364 -16.245121 17.467128 -3.346990 -19.320069 2.790545 4.133100 -8.949200 -3.425900 -0.975644 3.105883 0.954100 -82.269078 -45.812274 92.427898 117.539421 -54.914294 -73.695003 0.682724 2.421556 -15.645504 25.827026 -15.127028 -7.930400 -7.125000 0.000000 0.000000 -2.254800 10.604200 1.802800 3.951878 0.996294 -2.109441 -30.195972 27.413505 80.245377 -20.467746 35.299093 -4.244884 0.328580 -2.876979 -92.392869 -32.394913 -10.499377 5.944300 7.125000 0.000000 0.000000 -2.199700 -42.107400 -0.157100 
6.940473 16.849167 1.205533 -176.127414 22.211507 -174.558490 -1.100228 2.547003 2.715777 7.250274 5.087299 -10.543918 6.012056 14.417637 45.333772 2.486650 -23.287435 -0.371857 2.151800 -9.175400 -26.345600 -0.803064 -3.057212 1.360552 2.014192 7.147872 -39.013388 -5.447406 -14.096624 42.720182 1.960784 -10.868747 0.581570 -3.370800 11.272400 -33.204200 0.804536 0.792465 5.300354 0.102232 0.795524 -4.779089 0.325766 0.962475 -6.257145 -3.622214 -16.652487 17.159490 -3.573680 -19.872727 2.583860 3.973100 -9.174400 -3.504500 -1.053713 3.061616 0.902924 -83.070909 -46.553053 93.628229 117.717058 -54.790578 -73.895039 0.605495 2.431377 -16.442067 25.919088 -14.828138 -7.853400 -7.125000 0.000000 0.000000 -2.140900 10.899100 1.698700 4.238362 1.073434 -2.062693 -35.940605 29.251969 97.099974 -21.911384 37.273821 -4.937101 0.976952 -2.809326 -114.031684 -33.345449 -9.905271 6.148700 7.125000 0.000000 0.000000 -3.000600 -42.184000 -0.208700 
7.014986 16.768709 1.242635 -175.854336 21.550223 -174.665861 -1.001173 2.512532 2.682039 8.415398 4.537890 -11.035280 6.386896 14.821747 46.685059 2.661982 -21.857224 -2.033047 2.455200 -9.756000 -28.190100 -0.831029 -3.056131 1.362962 1.805702 6.875712 -38.902445 -5.531394 -14.225782 43.185764 1.655334 -9.603131 1.196726 -3.669600 11.707300 -34.704100 1.580244 1.108697 5.831174 0.068793 1.264919 -4.705960 -0.319093 1.176838 -5.981062 -3.203497 -17.045061 16.561424 -3.856003 -20.338499 2.398246 3.739900 -9.361400 -3.573900 -1.088523 3.051711 0.807184 -83.557179 -47.394985 94.643218 118.331947 -54.544501 -74.586798 0.514336 2.413393 -17.100944 26.073788 -14.337645 -7.711100 -7.125000 0.000000 0.000000 -1.950200 11.416200 1.526500 4.402011 1.129315 -1.787250 -39.566419 29.636732 107.262721 -24.021827 39.754487 -6.136059 1.284930 -2.531664 -128.099666 -33.907423 -9.127789 6.071100 7.125000 0.000000 0.000000 -3.693100 -41.752900 -0.296300 
7.090626 16.690404 1.277688 -175.598266 20.808598 -174.781960 -0.899971 2.474676 2.639257 9.504290 3.975298 -11.545467 6.748620 15.196316 47.972403 2.793694 -20.082738 -3.613459 2.718400 -10.224600 -29.707100 -0.856445 -3.048612 1.358246 1.680938 6.486405 -38.883465 -5.650834 -14.397351 43.812541 1.332507 -8.225208 1.677469 -3.954900 12.100100 -36.087000 2.321982 1.348455 6.295413 0.032509 1.640807 -4.611689 -0.948633 1.353403 -5.601668 -2.673663 -17.426944 15.950975 -4.149817 -20.745175 2.184147 3.500200 -9.516500 -3.674900 -1.095850 3.068519 0.720196 -83.802569 -48.412514 95.418525 119.172683 -54.255548 -75.546510 0.417203 2.371314 -17.691420 26.179973 -13.691457 -7.472300 -7.125000 0.000000 0.000000 -1.766500 12.136800 1.356300 4.505853 1.192629 -1.526333 -41.691425 28.878179 112.666842 -25.624268 41.477314 -7.149534 1.383322 -2.315123 -136.484102 -34.486208 -8.245555 5.828000 7.125000 0.000000 0.000000 -4.400400 -41.016300 -0.433300 
7.165447 16.616403 1.319506 -175.302989 20.031301 -174.913852 -0.791880 2.431930 2.591076 10.584544 3.425260 -12.083700 7.089715 15.540920 49.187347 2.858063 -18.717939 -4.771518 2.858400 -10.462200 -30.486800 -0.873940 -3.042012 1.351557 1.714047 6.028610 -38.947912 -5.804472 -14.597892 44.568969 1.030269 -6.890222 1.982479 -4.146200 12.352400 -36.990400 3.071910 1.479465 6.838910 -0.018716 1.877871 -4.512477 -1.629489 1.466804 -5.305084 -1.945767 -17.756184 15.401854 -4.451276 -21.027872 1.936112 3.243600 -9.611000 -3.820200 -1.095546 3.068268 0.681916 -83.558607 -49.416829 95.790512 120.126028 -53.971762 -76.660339 0.330578 2.301402 -18.160963 26.248385 -12.981066 -7.173200 -7.125000 0.000000 0.000000 -1.599700 12.968200 1.200400 4.576278 1.301455 -1.396565 -42.287330 26.631821 112.838935 -25.637312 41.552227 -7.219657 1.414685 -2.238268 -138.616148 -35.249407 -8.219703 6.018300 7.125000 0.000000 0.000000 -5.134600 -41.107600 -0.494400 
7.239037 16.547323 1.346564 -175.015774 19.231625 -175.041062 -0.681394 2.389016 2.535590 11.559750 2.911388 -12.575368 7.396187 15.840576 50.270883 2.896024 -18.042077 -5.533237 2.884700 -10.506000 -30.631200 -0.883080 -3.033692 1.340495 1.844217 5.402337 -39.088339 -5.989565 -14.831795 45.438091 0.756361 -5.646902 2.162329 -4.363700 12.629300 -37.996200 3.835203 1.504537 7.196230 -0.088409 1.975033 -4.391713 -2.409784 1.516217 -4.900302 -1.083738 -18.069894 15.020102 -4.679118 -21.227364 1.605699 3.036900 -9.656300 -4.048100 -1.097999 3.094593 0.691862 -82.792518 -50.269484 95.783305 121.248635 -53.690210 -77.941686 0.268607 2.210969 -18.475154 26.253143 -12.346069 -6.867600 -7.125000 0.000000 0.000000 -1.489300 13.757500 1.092800 4.620192 1.432621 -1.332812 -41.960556 23.575465 109.369920 -24.737802 40.681323 -6.731041 1.404169 -2.274416 -136.496254 -36.309869 -8.469055 6.391800 7.125000 0.000000 0.000000 -6.049500 -41.464700 -0.529700 
7.309655 16.482956 1.371573 -174.713510 18.422616 -175.149782 -0.573612 2.344772 2.476953 12.488938 2.478133 -13.118720 7.653557 16.097409 51.204567 2.901705 -17.984922 -5.631656 2.797700 -10.360200 -30.151200 -0.890514 -3.024066 1.323657 2.101616 4.719056 -39.306311 -6.208408 -15.082559 46.392973 0.556891 -4.711828 2.149484 -4.636700 12.962600 -39.228800 4.577995 1.472310 7.508257 -0.147343 1.999252 -4.266196 -3.124500 1.539631 -4.494596 -0.396612 -18.402199 14.842202 -4.765926 -21.459213 1.174787 2.948700 -9.705900 -4.316700 -1.098002 3.149105 0.720029 -81.930236 -51.027989 95.676416 122.291204 -53.447073 -79.104740 0.231659 2.128948 -18.738079 26.240498 -11.918365 -6.643600 -7.125000 0.000000 0.000000 -1.424900 14.319400 1.028500 4.645788 1.570988 -1.280644 -41.290062 20.643820 104.657257 -23.768317 39.654651 -6.215205 1.327423 -2.379681 -132.553379 -37.356123 -8.132268 6.371600 7.125000 0.000000 0.000000 -6.924100 -41.116000 -0.666900 
